# xmcd CD database file
#
# Track frame offsets:
#	150
#	16835
#	38762
#	57212
#	74875
#	94850
#	111040
#	133557
#	152477
#	171872
#	191905
#
# Disc length: 2839 seconds
#
# Revision: 0
# Processed by: cddbd v1.5.2PL0 Copyright (c) Steve Scherf et al.
# Submitted via: CDex 1.70beta2
#
DISCID=930b150b
DTITLE=Various Salsa Artists - Pop Salsa Hits
DYEAR=1900
DGENRE=Salsa
TTITLE0=Ednita Nazario - Dime
TTITLE1=Gilberto Santa Rosa - Que Alguien Me Diga
TTITLE2=Chayanne - Y Tu Te Vas
TTITLE3=Son By Four and Jaci Velasquez - Vida Mia
TTITLE4=Sin Banderas - Entra En Mi Vida
TTITLE5=MDO - Te Quise Olvidar
TTITLE6=Brenda K-Starr w Tito Nieves and Victor Manuelle - Por Ese Hombre
TTITLE7=Charlie Zaa - Flor Sin Retono
TTITLE8=Jerry Rivera - Ese
TTITLE9=Son By Four - Cuando Seas Mia
TTITLE10=Angel Lopez - Entre El Amor y El Odio
EXTD=
EXTT0=
EXTT1=
EXTT2=
EXTT3=
EXTT4=
EXTT5=
EXTT6=
EXTT7=
EXTT8=
EXTT9=
EXTT10=
PLAYORDER=
